<svg xmlns="http://www.w3.org/2000/svg" version="1.1" xmlns:xlink="http://www.w3.org/1999/xlink" xmlns:svgjs="http://svgjs.com/svgjs" width="1000" height="400" preserveAspectRatio="none" viewBox="0 0 1000 400"><g mask="url(&quot;#SvgjsMask1953&quot;)" fill="none"><path d="M102.93 68.72L157.49 100.22L157.49 163.22L102.93 194.72L48.37 163.22L48.37 100.22zM102.93 257.72L157.49 289.22L157.49 352.22L102.93 383.72L48.37 352.22L48.37 289.22zM321.18 68.72L375.74 100.22L375.74 163.22L321.18 194.72L266.61 163.22L266.61 100.22zM375.74 163.22L430.3 194.72L430.3 257.72L375.74 289.22L321.18 257.72L321.18 194.72zM539.42 257.72L593.98 289.22L593.98 352.22L539.42 383.72L484.86 352.22L484.86 289.22zM593.98 352.22L648.54 383.72L648.54 446.72L593.98 478.22L539.42 446.72L539.42 383.72zM757.66 68.72L812.23 100.22L812.23 163.22L757.66 194.72L703.1 163.22L703.1 100.22zM703.1 163.22L757.66 194.72L757.66 257.72L703.1 289.22L648.54 257.72L648.54 194.72zM812.23 352.22L866.79 383.72L866.79 446.72L812.23 478.22L757.66 446.72L757.66 383.72zM921.35 163.22L975.91 194.72L975.91 257.72L921.35 289.22L866.79 257.72L866.79 194.72zM1030.47 163.22L1085.03 194.72L1085.03 257.72L1030.47 289.22L975.91 257.72L975.91 194.72zM1030.47 352.22L1085.03 383.72L1085.03 446.72L1030.47 478.22L975.91 446.72L975.91 383.72z" stroke="rgba(182, 227, 245, 1)" stroke-width="2"></path><path d="M96.63 68.72 a6.3 6.3 0 1 0 12.6 0 a6.3 6.3 0 1 0 -12.6 0zM151.19 100.22 a6.3 6.3 0 1 0 12.6 0 a6.3 6.3 0 1 0 -12.6 0zM151.19 163.22 a6.3 6.3 0 1 0 12.6 0 a6.3 6.3 0 1 0 -12.6 0zM96.63 194.72 a6.3 6.3 0 1 0 12.6 0 a6.3 6.3 0 1 0 -12.6 0zM42.07 163.22 a6.3 6.3 0 1 0 12.6 0 a6.3 6.3 0 1 0 -12.6 0zM42.07 100.22 a6.3 6.3 0 1 0 12.6 0 a6.3 6.3 0 1 0 -12.6 0zM96.63 257.72 a6.3 6.3 0 1 0 12.6 0 a6.3 6.3 0 1 0 -12.6 0zM151.19 289.22 a6.3 6.3 0 1 0 12.6 0 a6.3 6.3 0 1 0 -12.6 0zM151.19 352.22 a6.3 6.3 0 1 0 12.6 0 a6.3 6.3 0 1 0 -12.6 0zM96.63 383.72 a6.3 6.3 0 1 0 12.6 0 a6.3 6.3 0 1 0 -12.6 0zM42.07 352.22 a6.3 6.3 0 1 0 12.6 0 a6.3 6.3 0 1 0 -12.6 0zM42.07 289.22 a6.3 6.3 0 1 0 12.6 0 a6.3 6.3 0 1 0 -12.6 0zM314.88 68.72 a6.3 6.3 0 1 0 12.6 0 a6.3 6.3 0 1 0 -12.6 0zM369.44 100.22 a6.3 6.3 0 1 0 12.6 0 a6.3 6.3 0 1 0 -12.6 0zM369.44 163.22 a6.3 6.3 0 1 0 12.6 0 a6.3 6.3 0 1 0 -12.6 0zM314.88 194.72 a6.3 6.3 0 1 0 12.6 0 a6.3 6.3 0 1 0 -12.6 0zM260.31 163.22 a6.3 6.3 0 1 0 12.6 0 a6.3 6.3 0 1 0 -12.6 0zM260.31 100.22 a6.3 6.3 0 1 0 12.6 0 a6.3 6.3 0 1 0 -12.6 0zM424 194.72 a6.3 6.3 0 1 0 12.6 0 a6.3 6.3 0 1 0 -12.6 0zM424 257.72 a6.3 6.3 0 1 0 12.6 0 a6.3 6.3 0 1 0 -12.6 0zM369.44 289.22 a6.3 6.3 0 1 0 12.6 0 a6.3 6.3 0 1 0 -12.6 0zM314.88 257.72 a6.3 6.3 0 1 0 12.6 0 a6.3 6.3 0 1 0 -12.6 0zM533.12 257.72 a6.3 6.3 0 1 0 12.6 0 a6.3 6.3 0 1 0 -12.6 0zM587.68 289.22 a6.3 6.3 0 1 0 12.6 0 a6.3 6.3 0 1 0 -12.6 0zM587.68 352.22 a6.3 6.3 0 1 0 12.6 0 a6.3 6.3 0 1 0 -12.6 0zM533.12 383.72 a6.3 6.3 0 1 0 12.6 0 a6.3 6.3 0 1 0 -12.6 0zM478.56 352.22 a6.3 6.3 0 1 0 12.6 0 a6.3 6.3 0 1 0 -12.6 0zM478.56 289.22 a6.3 6.3 0 1 0 12.6 0 a6.3 6.3 0 1 0 -12.6 0zM642.24 383.72 a6.3 6.3 0 1 0 12.6 0 a6.3 6.3 0 1 0 -12.6 0zM642.24 446.72 a6.3 6.3 0 1 0 12.6 0 a6.3 6.3 0 1 0 -12.6 0zM587.68 478.22 a6.3 6.3 0 1 0 12.6 0 a6.3 6.3 0 1 0 -12.6 0zM533.12 446.72 a6.3 6.3 0 1 0 12.6 0 a6.3 6.3 0 1 0 -12.6 0zM751.36 68.72 a6.3 6.3 0 1 0 12.6 0 a6.3 6.3 0 1 0 -12.6 0zM805.93 100.22 a6.3 6.3 0 1 0 12.6 0 a6.3 6.3 0 1 0 -12.6 0zM805.93 163.22 a6.3 6.3 0 1 0 12.6 0 a6.3 6.3 0 1 0 -12.6 0zM751.36 194.72 a6.3 6.3 0 1 0 12.6 0 a6.3 6.3 0 1 0 -12.6 0zM696.8 163.22 a6.3 6.3 0 1 0 12.6 0 a6.3 6.3 0 1 0 -12.6 0zM696.8 100.22 a6.3 6.3 0 1 0 12.6 0 a6.3 6.3 0 1 0 -12.6 0zM751.36 257.72 a6.3 6.3 0 1 0 12.6 0 a6.3 6.3 0 1 0 -12.6 0zM696.8 289.22 a6.3 6.3 0 1 0 12.6 0 a6.3 6.3 0 1 0 -12.6 0zM642.24 257.72 a6.3 6.3 0 1 0 12.6 0 a6.3 6.3 0 1 0 -12.6 0zM642.24 194.72 a6.3 6.3 0 1 0 12.6 0 a6.3 6.3 0 1 0 -12.6 0zM805.93 352.22 a6.3 6.3 0 1 0 12.6 0 a6.3 6.3 0 1 0 -12.6 0zM860.49 383.72 a6.3 6.3 0 1 0 12.6 0 a6.3 6.3 0 1 0 -12.6 0zM860.49 446.72 a6.3 6.3 0 1 0 12.6 0 a6.3 6.3 0 1 0 -12.6 0zM805.93 478.22 a6.3 6.3 0 1 0 12.6 0 a6.3 6.3 0 1 0 -12.6 0zM751.36 446.72 a6.3 6.3 0 1 0 12.6 0 a6.3 6.3 0 1 0 -12.6 0zM751.36 383.72 a6.3 6.3 0 1 0 12.6 0 a6.3 6.3 0 1 0 -12.6 0zM915.05 163.22 a6.3 6.3 0 1 0 12.6 0 a6.3 6.3 0 1 0 -12.6 0zM969.61 194.72 a6.3 6.3 0 1 0 12.6 0 a6.3 6.3 0 1 0 -12.6 0zM969.61 257.72 a6.3 6.3 0 1 0 12.6 0 a6.3 6.3 0 1 0 -12.6 0zM915.05 289.22 a6.3 6.3 0 1 0 12.6 0 a6.3 6.3 0 1 0 -12.6 0zM860.49 257.72 a6.3 6.3 0 1 0 12.6 0 a6.3 6.3 0 1 0 -12.6 0zM860.49 194.72 a6.3 6.3 0 1 0 12.6 0 a6.3 6.3 0 1 0 -12.6 0zM1024.17 163.22 a6.3 6.3 0 1 0 12.6 0 a6.3 6.3 0 1 0 -12.6 0zM1078.73 194.72 a6.3 6.3 0 1 0 12.6 0 a6.3 6.3 0 1 0 -12.6 0zM1078.73 257.72 a6.3 6.3 0 1 0 12.6 0 a6.3 6.3 0 1 0 -12.6 0zM1024.17 289.22 a6.3 6.3 0 1 0 12.6 0 a6.3 6.3 0 1 0 -12.6 0zM1024.17 352.22 a6.3 6.3 0 1 0 12.6 0 a6.3 6.3 0 1 0 -12.6 0zM1078.73 383.72 a6.3 6.3 0 1 0 12.6 0 a6.3 6.3 0 1 0 -12.6 0zM1078.73 446.72 a6.3 6.3 0 1 0 12.6 0 a6.3 6.3 0 1 0 -12.6 0zM1024.17 478.22 a6.3 6.3 0 1 0 12.6 0 a6.3 6.3 0 1 0 -12.6 0zM969.61 446.72 a6.3 6.3 0 1 0 12.6 0 a6.3 6.3 0 1 0 -12.6 0zM969.61 383.72 a6.3 6.3 0 1 0 12.6 0 a6.3 6.3 0 1 0 -12.6 0z" fill="rgba(182, 227, 245, 1)"></path></g><defs><mask id="SvgjsMask1953"><rect width="1000" height="400" fill="#ffffff"></rect></mask></defs></svg>