<svg xmlns="http://www.w3.org/2000/svg" version="1.1" xmlns:xlink="http://www.w3.org/1999/xlink" xmlns:svgjs="http://svgjs.com/svgjs" width="2000" height="400" preserveAspectRatio="none" viewBox="0 0 2000 400"><g mask="url(&quot;#SvgjsMask1465&quot;)" fill="none"><path d="M 0,29 C 80,56.4 240,156 400,166 C 560,176 640,85.4 800,79 C 960,72.6 1040,130.8 1200,134 C 1360,137.2 1440,89.2 1600,95 C 1760,100.8 1920,149.4 2000,163L2000 400L0 400z" fill="rgba(174, 224, 244, 1)"></path><path d="M 0,214 C 80,239.2 240,328.2 400,340 C 560,351.8 640,274.2 800,273 C 960,271.8 1040,345.2 1200,334 C 1360,322.8 1440,214.8 1600,217 C 1760,219.2 1920,319.4 2000,345L2000 400L0 400z" fill="rgba(228, 243, 250, 1)"></path></g><defs><mask id="SvgjsMask1465"><rect width="2000" height="400" fill="#ffffff"></rect></mask></defs></svg>